<?xml version="1.0" encoding="UTF-8"?>
<svg version="1.1" xmlns="http://www.w3.org/2000/svg" width="898" height="942">
<path d="M0 0 C236.70642086 0 236.70642086 0 255.375 4.625 C256.42880859 4.88369873 257.48261719 5.14239746 258.56835938 5.40893555 C299.78851194 15.97206607 334.88637617 41.74439901 357.19238281 77.93457031 C364.79625154 90.79275972 370.12262753 104.741183 373.8125 119.1875 C374.00739014 119.94571045 374.20228027 120.7039209 374.40307617 121.48510742 C377.43244239 134.10590904 378.3836117 146.80221493 378.3125 159.75 C378.30976578 160.79332489 378.30976578 160.79332489 378.30697632 161.85772705 C378.2574713 173.12842338 377.57127515 183.9986879 375 195 C374.83371094 195.73782715 374.66742187 196.4756543 374.49609375 197.23583984 C365.77835392 234.85934478 341.85553396 267.91433207 309.32617188 288.58251953 C280.74302446 306 280.74302446 306 269 306 C273.87686986 314.10522032 279.35942847 321.6110846 285.078125 329.1328125 C287.51248785 332.33633375 289.86195973 335.59133714 292.1875 338.875 C306.75212583 358.85276192 324.92041482 369.80243407 349 374 C360.62770486 375.16277049 372.32363859 375.53294554 384 376 C384 409.33 384 442.66 384 477 C375.481875 477.0825 366.96375 477.165 358.1875 477.25 C354.24913208 477.30462402 354.24913208 477.30462402 350.23120117 477.36035156 C327.35904435 477.54214683 304.8634806 474.90908406 283 468 C282.00347412 467.68772461 282.00347412 467.68772461 280.98681641 467.36914062 C257.74016261 459.86835881 237.45511885 446.87166084 220 430 C219.13632812 429.18789063 218.27265625 428.37578125 217.3828125 427.5390625 C204.723537 415.35303095 196.01631742 400.92690912 187 386 C185.62833701 383.74303926 184.25600853 381.48649582 182.8828125 379.23046875 C179.98825025 374.47243489 177.09762906 369.71203183 174.2109375 364.94921875 C173.8555188 364.36280609 173.5001001 363.77639343 173.13391113 363.17221069 C171.44588207 360.38674983 169.75837114 357.60097594 168.07128906 354.81494141 C167.4625293 353.80995605 166.85376953 352.8049707 166.2265625 351.76953125 C165.63721924 350.79306641 165.04787598 349.81660156 164.44067383 348.81054688 C163.28054792 346.90936852 162.10345963 345.0184281 160.90893555 343.13867188 C157.58170853 337.87060149 154.91847599 332.80954428 152.87182617 326.9128418 C150.86434109 322.9042264 150.86434109 322.9042264 144 316 C132.12 315.67 120.24 315.34 108 315 C108 368.46 108 421.92 108 477 C72.36 477 36.72 477 0 477 C0 319.59 0 162.18 0 0 Z M108 102 C108 140.94 108 179.88 108 220 C126.211875 220.0825 144.42375 220.165 163.1875 220.25 C171.78075317 220.30462402 171.78075317 220.30462402 180.54760742 220.36035156 C185.72861003 220.37373767 185.72861003 220.37373767 190.90962219 220.3817749 C193.19908263 220.38787634 195.48853103 220.401859 197.77790833 220.42230225 C218.18454488 220.59525533 235.34849539 218.88570435 250.9375 204.1875 C261.99223389 192.46278224 267.41399761 177.72137388 267.3125 161.75 C267.30404053 160.35793335 267.30404053 160.35793335 267.29541016 158.93774414 C266.99800583 142.09317536 261.00045736 128.83083958 249 117 C248.43539062 116.42507813 247.87078125 115.85015625 247.2890625 115.2578125 C236.28928451 104.90192395 221.20484003 101.49909789 206.54003906 101.65942383 C204.9023588 101.65888142 204.9023588 101.65888142 203.23159409 101.65832806 C199.74274262 101.66054413 196.25438898 101.68328291 192.765625 101.70703125 C190.59358959 101.71144926 188.42155097 101.71450538 186.24951172 101.71618652 C178.24962536 101.73183222 170.24980764 101.77371597 162.25 101.8125 C144.3475 101.874375 126.445 101.93625 108 102 Z " fill="#E64F1D" transform="translate(257,201)"/>
<path d="M0 0 C25.08 0 50.16 0 76 0 C73.74566292 13.5260225 73.74566292 13.5260225 72.1875 18.93359375 C71.83969482 20.14426514 71.49188965 21.35493652 71.13354492 22.60229492 C70.7594751 23.8679126 70.38540527 25.13353027 70 26.4375 C69.80403229 27.10407623 69.60806458 27.77065247 69.40615845 28.45742798 C60.7332473 57.88699864 50.36825544 86.77464285 36.05566406 113.97851562 C34.85773166 116.27242874 33.69072811 118.58097448 32.5234375 120.890625 C14.02036191 157.22578553 -10.5812882 193.67058632 -40.07958984 222.07666016 C-41.90430087 223.90415488 -43.57377563 225.79185007 -45.2421875 227.76171875 C-48.86304956 231.9291894 -52.75543709 235.69924491 -56.8125 239.4375 C-57.51463623 240.08928223 -58.21677246 240.74106445 -58.94018555 241.41259766 C-60.95568824 243.27994594 -62.97678567 245.14101443 -65 247 C-66.423125 248.31291016 -66.423125 248.31291016 -67.875 249.65234375 C-133.9949138 309.94438053 -218.87029579 347.82697621 -306.9375 361.25 C-308.42540039 361.47695557 -308.42540039 361.47695557 -309.94335938 361.70849609 C-313.29129691 362.18731392 -316.64107109 362.60504998 -320 363 C-320.73430237 363.08720306 -321.46860474 363.17440613 -322.22515869 363.26425171 C-337.64491017 365.03679602 -352.98976196 365.34127928 -368.50097656 365.31567383 C-372.46708023 365.31252613 -376.43242589 365.33603092 -380.3984375 365.36132812 C-403.43477608 365.41853403 -426.28656064 363.73466294 -449 359.75 C-450.21526367 359.54093018 -451.43052734 359.33186035 -452.68261719 359.11645508 C-475.56495736 355.05341433 -497.96006556 349.35580236 -520 342 C-521.02899414 341.65743164 -522.05798828 341.31486328 -523.11816406 340.96191406 C-539.86699963 335.31582529 -555.9907417 328.47471482 -572 321 C-572.88993652 320.58669434 -573.77987305 320.17338867 -574.69677734 319.74755859 C-594.34170543 310.53648304 -613.08106707 299.19821418 -631 287 C-632.12631836 286.23526367 -632.12631836 286.23526367 -633.27539062 285.45507812 C-643.32403596 278.58069564 -652.88174972 271.24023928 -662.23974609 263.45605469 C-664.69949478 261.42138879 -667.19694797 259.43426675 -669.6875 257.4375 C-673.56671642 254.25031043 -677.31824199 250.94673374 -681.00390625 247.5390625 C-681.56563538 247.01973648 -682.1273645 246.50041046 -682.70611572 245.96534729 C-688.4517253 240.62368376 -694.04817695 235.13794676 -699.59472656 229.59057617 C-701.25828808 227.92922292 -702.92975104 226.2760931 -704.6015625 224.62304688 C-710.40496289 218.84970096 -715.83983446 212.9747928 -720.94042969 206.55664062 C-722.92942989 204.08760196 -724.99765049 201.72906281 -727.125 199.37890625 C-730.99258427 195.06895748 -734.53758636 190.57705812 -738 185.9375 C-738.63373535 185.08969971 -739.2674707 184.24189941 -739.92041016 183.3684082 C-753.81195133 164.57927372 -766.16526783 144.88472709 -777.4375 124.4375 C-778.21915527 123.02573486 -778.21915527 123.02573486 -779.01660156 121.58544922 C-781.44059198 117.1382668 -783.63568595 112.90989666 -785 108 C-780.95992072 111.72711539 -778.2722309 115.52960517 -775.5 120.25 C-770.42274452 128.62315398 -764.63461458 136.30842227 -758.57861328 143.9921875 C-757.10134041 145.87110679 -755.63973779 147.76093499 -754.18359375 149.65625 C-745.15811264 161.35836565 -735.66149771 172.61094435 -725.0703125 182.9296875 C-723.37594963 184.62405037 -721.85779165 186.31191586 -720.375 188.1875 C-717.81482081 191.21929114 -715.04190434 193.65719221 -712.02734375 196.22265625 C-710.14964868 197.86880511 -708.41872302 199.57735116 -706.6875 201.375 C-703.01296859 205.10772535 -699.00513992 208.35386926 -694.92578125 211.6328125 C-692.07542658 213.93897396 -689.28915527 216.30794096 -686.5 218.6875 C-636.22096963 260.5758513 -573.8967033 290.16945206 -510 304 C-508.50122314 304.32774414 -508.50122314 304.32774414 -506.97216797 304.66210938 C-493.83342116 307.48390919 -480.63931873 309.57710719 -467.3125 311.25 C-466.013125 311.41322754 -464.71375 311.57645508 -463.375 311.74462891 C-447.42741878 313.65662824 -431.66603344 314.20745811 -415.625 314.1875 C-414.65001556 314.18656342 -413.67503113 314.18562683 -412.67050171 314.18466187 C-313.09551196 313.97767917 -215.21615577 278.21616528 -139 214 C-138.4829248 213.5678418 -137.96584961 213.13568359 -137.43310547 212.69042969 C-110.29786928 189.98037356 -86.86146182 164.53620913 -66 136 C-65.18716553 134.89519287 -65.18716553 134.89519287 -64.35791016 133.76806641 C-56.17059137 122.6026072 -48.88425827 111.00935549 -42 99 C-41.505 98.13777832 -41.01 97.27555664 -40.5 96.38720703 C-22.94603479 65.57062684 -11.23437775 33.70313326 0 0 Z " fill="#E64F1D" transform="translate(817,577)"/>
<path d="M0 0 C1.23270126 -0.00701431 2.46540253 -0.01402863 3.73545837 -0.02125549 C7.68954127 -0.03865929 11.64354321 -0.04568904 15.59765625 -0.046875 C16.2709623 -0.04731686 16.94426834 -0.04775871 17.6379776 -0.04821396 C37.47615069 -0.05504389 57.00800184 0.19214469 76.66015625 3.203125 C77.85415039 3.37473145 79.04814453 3.54633789 80.27832031 3.72314453 C125.92306592 10.34784886 169.99368829 23.39650397 211.66015625 43.203125 C212.50400879 43.60047852 213.34786133 43.99783203 214.21728516 44.40722656 C236.04852954 54.75498402 257.10036846 67.00993905 276.66015625 81.203125 C277.41200195 81.74146973 278.16384766 82.27981445 278.93847656 82.83447266 C288.95633056 90.01292279 298.57696974 97.45334394 307.80566406 105.61987305 C309.17135321 106.78581487 310.56600324 107.91804115 311.97558594 109.03051758 C319.84000213 115.25202491 326.87271556 122.14272131 333.92285156 129.26000977 C335.91545383 131.27097139 337.91604558 133.27371195 339.91796875 135.27539062 C346.03977087 141.41404017 352.08852052 147.55327084 357.66015625 154.203125 C358.50578125 155.16734375 359.35140625 156.1315625 360.22265625 157.125 C380.90300616 181.11950855 398.1341633 207.65173649 413.66015625 235.203125 C414.23854248 236.21101074 414.23854248 236.21101074 414.82861328 237.23925781 C425.6593236 256.12967095 434.04709458 276.84261124 441.66015625 297.203125 C451.23015625 297.533125 460.80015625 297.863125 470.66015625 298.203125 C463.91185693 306.07614087 463.91185693 306.07614087 460.953125 308.82421875 C460.293125 309.44103516 459.633125 310.05785156 458.953125 310.69335938 C458.25832031 311.33595703 457.56351563 311.97855469 456.84765625 312.640625 C455.33063808 314.05589195 453.81371362 315.47125936 452.296875 316.88671875 C451.52649902 317.60327637 450.75612305 318.31983398 449.96240234 319.05810547 C446.34818942 322.4254941 442.75483192 325.81491018 439.16015625 329.203125 C437.74878859 330.53134636 436.33732995 331.85947104 434.92578125 333.1875 C432.03875396 335.90454592 429.15354886 338.62350978 426.26953125 341.34375 C417.7797905 349.34833569 409.25468682 357.31110389 400.66015625 365.203125 C397.17361149 363.7189877 395.01824553 361.74098448 392.41015625 359.015625 C389.58119705 356.11732856 386.7399477 353.3332669 383.66015625 350.703125 C379.86656892 347.45147872 376.38622978 343.94599406 372.87890625 340.390625 C370.86584993 338.40592158 368.80569222 336.54215584 366.66015625 334.703125 C362.86656892 331.45147872 359.38622978 327.94599406 355.87890625 324.390625 C353.86584993 322.40592158 351.80569222 320.54215584 349.66015625 318.703125 C345.87838884 315.46161008 342.40709563 311.9695817 338.9140625 308.421875 C336.09042571 305.64228108 333.12341828 303.0669246 330.09375 300.515625 C329.62066406 300.0825 329.14757812 299.649375 328.66015625 299.203125 C328.66015625 298.873125 328.66015625 298.543125 328.66015625 298.203125 C338.56015625 298.203125 348.46015625 298.203125 358.66015625 298.203125 C347.65219729 270.75117795 335.64018123 244.17690203 319.66015625 219.203125 C319.28842285 218.61982422 318.91668945 218.03652344 318.53369141 217.43554688 C316.31270159 213.97442632 314.01024368 210.57760952 311.66015625 207.203125 C311.10062256 206.39681641 311.10062256 206.39681641 310.52978516 205.57421875 C291.75167292 178.60132297 269.83757759 152.43654226 244.66015625 131.203125 C243.77714844 130.43097656 242.89414062 129.65882813 241.984375 128.86328125 C222.49461518 111.91649533 201.10140694 96.97638329 178.66015625 84.203125 C177.80744141 83.71730957 176.95472656 83.23149414 176.07617188 82.73095703 C113.91619104 47.59564427 41.24864416 28.38776092 -30.33984375 30.203125 C-31.11247559 30.22101074 -31.88510742 30.23889648 -32.68115234 30.25732422 C-48.67471124 30.66756904 -64.48071395 32.11852416 -80.33984375 34.203125 C-81.314375 34.33025879 -82.28890625 34.45739258 -83.29296875 34.58837891 C-154.1733256 44.21939424 -225.86854919 72.35482569 -282.33984375 116.203125 C-282.99984375 115.873125 -283.65984375 115.543125 -284.33984375 115.203125 C-274.88724098 106.07930841 -264.88720946 98.02306141 -254.33984375 90.203125 C-253.04282566 89.2319619 -251.7459457 88.2606143 -250.44921875 87.2890625 C-179.54831426 34.43834277 -89.10085098 0.34054262 0 0 Z " fill="#FFC276" transform="translate(427.33984375,-0.203125)"/>
<path d="M0 0 C0.83611816 0.49999512 1.67223633 0.99999023 2.53369141 1.51513672 C18.91549991 11.39896907 34.41943664 22.60974218 49 35 C50.08196106 35.90763576 51.16399676 36.81518255 52.24609375 37.72265625 C69.04325953 51.88993883 86.48742118 66.79988535 99 85 C95.01718823 83.34929247 92.10853083 80.58371618 88.9375 77.75 C14.8782459 13.12812355 -85.52180483 -15.65412625 -182.6473999 -9.64035034 C-234.81298456 -6.03454332 -286.81099834 7.44763841 -334 30 C-335.02689941 30.49000488 -336.05379883 30.98000977 -337.11181641 31.48486328 C-365.29013068 45.0402577 -391.53289377 61.49475447 -416 81 C-416.99902344 81.78632813 -417.99804688 82.57265625 -419.02734375 83.3828125 C-425.76417207 88.77614134 -432.06801613 94.58842532 -438.36376953 100.48144531 C-439.97796259 101.9795475 -441.60807697 103.45770268 -443.24609375 104.9296875 C-448.16772832 109.35794227 -452.92637112 113.78684958 -457.18359375 118.875 C-459.41117145 121.48102638 -461.77124436 123.94488972 -464.125 126.4375 C-470.99822836 133.8376918 -476.99782315 141.89004173 -483 150 C-483.45262207 150.60602051 -483.90524414 151.21204102 -484.37158203 151.83642578 C-491.56599402 161.49531236 -497.93844806 171.59701066 -504 182 C-504.48758789 182.8353125 -504.97517578 183.670625 -505.47753906 184.53125 C-511.51278463 194.97399412 -516.92961033 205.60154939 -521.6875 216.6875 C-522.09033203 217.615625 -522.49316406 218.54375 -522.90820312 219.5 C-528.01730367 231.76509034 -531.78197605 244.34592816 -536 257 C-558.44 257 -580.88 257 -604 257 C-600.2711937 227.16954959 -588.19556671 197.80620978 -575 171 C-574.58782227 170.16178711 -574.17564453 169.32357422 -573.75097656 168.45996094 C-561.25581544 143.33874659 -545.49434732 120.3304177 -527.52490234 98.83349609 C-526.13151778 97.15813297 -524.76067026 95.46710975 -523.39453125 93.76953125 C-516.57837336 85.42944601 -509.02732201 77.81557997 -501.4375 70.1875 C-500.90660767 69.65134064 -500.37571533 69.11518127 -499.82873535 68.56277466 C-492.88598554 61.56684372 -485.71854897 55.14784517 -478 49 C-476.89818988 48.0651992 -475.80186205 47.12383575 -474.71484375 46.171875 C-465.91134166 38.49512213 -456.57922997 31.67440308 -447 25 C-446.28215332 24.49855469 -445.56430664 23.99710937 -444.82470703 23.48046875 C-381.71725985 -20.31485738 -304.91548761 -48.16062672 -228 -53 C-227.18789063 -53.05494629 -226.37578125 -53.10989258 -225.5390625 -53.16650391 C-146.57452822 -58.37853216 -68.06521534 -40.74899318 0 0 Z " fill="#E64F1D" transform="translate(604,100)"/>
<path d="M0 0 C3.19924775 1.42568973 5.50309787 3.71106073 8.00390625 6.1015625 C8.53725586 6.60075195 9.07060547 7.09994141 9.62011719 7.61425781 C13.00512097 10.79760179 16.30449893 14.05802412 19.55859375 17.375 C21.33270633 19.11515827 23.18127176 20.73256464 25.06640625 22.3515625 C28.07608155 24.94290455 30.90229241 27.64911033 33.69140625 30.4765625 C37.07382024 33.9053904 40.57211067 37.09704768 44.2265625 40.23046875 C47.00839773 42.70259668 49.58516576 45.36086797 52.1953125 48.01171875 C54.11247802 49.89886994 56.08715947 51.66341625 58.12890625 53.4140625 C62.71087418 57.35838082 67.08028058 61.54187602 71.19140625 65.9765625 C71.19140625 66.3065625 71.19140625 66.6365625 71.19140625 66.9765625 C58.98140625 66.9765625 46.77140625 66.9765625 34.19140625 66.9765625 C41.4815697 78.83405726 48.99701782 90.09168153 57.63183594 100.99951172 C59.13816417 102.90906807 60.62471201 104.83229372 62.10546875 106.76171875 C67.05848868 113.19054702 72.16924183 119.34244824 77.70703125 125.28125 C79.60553401 127.34094639 81.43370167 129.42401301 83.25390625 131.55078125 C87.74005623 136.6940302 92.5453437 141.51655359 97.36914062 146.33959961 C98.93000952 147.90264984 100.48268513 149.47353615 102.03515625 151.04492188 C107.6442193 156.68520564 113.37997053 161.93283675 119.61254883 166.89404297 C122.0781496 168.88510371 124.43401899 170.95358172 126.78125 173.08203125 C131.24568137 177.09040257 135.93685552 180.71654722 140.75390625 184.2890625 C141.62668213 184.93858887 142.49945801 185.58811523 143.39868164 186.25732422 C204.76933319 231.69591047 278.73150115 264.61953235 356.19140625 265.9765625 C357.26229492 265.99702637 358.33318359 266.01749023 359.43652344 266.03857422 C436.93840804 267.28131581 511.52677191 247.42786403 577.19140625 205.9765625 C577.19140625 206.9665625 577.19140625 207.9565625 577.19140625 208.9765625 C575.80883789 210.3359375 575.80883789 210.3359375 573.8515625 211.7265625 C573.12702881 212.24694092 572.40249512 212.76731934 571.65600586 213.3034668 C570.46696655 214.13164917 570.46696655 214.13164917 569.25390625 214.9765625 C568.43994385 215.55253174 567.62598145 216.12850098 566.78735352 216.72192383 C519.39434079 250.01385456 467.02463756 273.51467901 410.19140625 284.9765625 C409.18932129 285.18216797 408.18723633 285.38777344 407.15478516 285.59960938 C400.52702094 286.93392286 393.88442839 288.02607415 387.19140625 288.9765625 C385.66676758 289.20085937 385.66676758 289.20085937 384.11132812 289.4296875 C348.89788327 294.38992988 311.35873008 294.17592237 276.19140625 288.9765625 C275.02738281 288.81027344 273.86335938 288.64398437 272.6640625 288.47265625 C202.56024765 278.19685277 135.64565232 250.29541779 80.19140625 205.9765625 C79.23878906 205.21730469 78.28617188 204.45804688 77.3046875 203.67578125 C71.98060978 199.37642141 66.82408525 194.92972964 61.7734375 190.3125 C60.34430334 189.01957681 58.90856517 187.73346564 57.44702148 186.47729492 C51.92945138 181.73272105 46.76096079 176.69569192 41.62890625 171.5390625 C40.81744141 170.73146484 40.00597656 169.92386719 39.16992188 169.09179688 C34.30206004 164.21607731 29.66392009 159.21571173 25.19140625 153.9765625 C24.34578125 153.01234375 23.50015625 152.048125 22.62890625 151.0546875 C7.11255674 133.05174352 -6.24181118 113.67584825 -18.49609375 93.3515625 C-19.11419922 92.32651611 -19.73230469 91.30146973 -20.36914062 90.24536133 C-24.74534385 82.91756115 -28.75312056 75.50815557 -32.80859375 67.9765625 C-45.34859375 67.6465625 -57.88859375 67.3165625 -70.80859375 66.9765625 C-68.76616555 62.89170609 -66.46641594 60.60116966 -63.12109375 57.6640625 C-62.02752011 56.6848495 -60.93506635 55.70438434 -59.84375 54.72265625 C-59.31797363 54.25069824 -58.79219727 53.77874023 -58.25048828 53.29248047 C-56.46097864 51.6593181 -54.75177878 49.95903256 -53.05859375 48.2265625 C-50.77268693 45.89648356 -48.40996661 43.72832978 -45.93359375 41.6015625 C-42.92391845 39.01022045 -40.09770759 36.30401467 -37.30859375 33.4765625 C-33.94744893 30.0693746 -30.47158172 26.90198076 -26.83984375 23.7890625 C-23.77159049 21.05123651 -20.92589027 18.1023588 -18.0390625 15.17578125 C-15.35010865 12.52450101 -12.53395233 10.06399413 -9.65625 7.62109375 C-7.83140175 5.99686307 -6.20880912 4.27566948 -4.55859375 2.4765625 C-1.80859375 -0.0234375 -1.80859375 -0.0234375 0 0 Z " fill="#FFC276" transform="translate(70.80859375,586.0234375)"/>
</svg>
